<svg fill="none" height="100%" width="100%" viewBox="0 0 1920 1276" xmlns:xlink="http://www.w3.org/1999/xlink" xmlns="http://www.w3.org/2000/svg"><defs><filter id="i0"><feColorMatrix values="0 0 0 0 1 0 0 0 0 1 0 0 0 0 1 0 0 0 1 0" type="matrix" /></filter><mask height="20000" width="20000" y="-10000" x="-10000" maskContentUnits="userSpaceOnUse" maskUnits="userSpaceOnUse" style="mask-type: alpha" mask-type="alpha" id="i1"><g filter="url(#i0)" transform="matrix(1,0,0,1,960.003,214.52)"><g id="i2" fill="#ff0000"><path stroke-miterlimit="10" stroke-width="7" stroke="#000000" d="M729.19,-11.58C729.19,-11.58,729.19,62.14,729.19,62.14C729.19,62.14,-729.19,62.14,-729.19,62.14C-729.19,62.14,-729.19,-11.58,-729.19,-11.58C-729.19,-39.5,-706.56,-62.14,-678.64,-62.14C-678.64,-62.14,678.64,-62.14,678.64,-62.14C706.56,-62.14,729.19,-39.5,729.19,-11.58Z" /></g></g></mask></defs><g transform="matrix(1,0,0,1,0,-12)" id="i3"><g id="i4" transform="matrix(1,0,0,1,0,0)"><g id="i4" transform="matrix(1,0,0,1,960.003,650)"><path fill="#e9e7e2" d="M729.19,-435.06C729.19,-435.06,729.19,435.06,729.19,435.06C729.19,462.98,706.56,485.62,678.64,485.62C678.64,485.62,-678.64,485.62,-678.64,485.62C-706.56,485.62,-729.19,462.98,-729.19,435.06C-729.19,435.06,-729.19,-435.06,-729.19,-435.06C-729.19,-462.98,-706.56,-485.62,-678.64,-485.62C-678.64,-485.62,678.64,-485.62,678.64,-485.62C706.56,-485.62,729.19,-462.98,729.19,-435.06Z" /></g><g id="i2" transform="matrix(1,0,0,1,960.003,650)"><path stroke-miterlimit="10" stroke-width="7" stroke="#000000" d="M729.19,-435.06C729.19,-435.06,729.19,435.06,729.19,435.06C729.19,462.98,706.56,485.62,678.64,485.62C678.64,485.62,-678.64,485.62,-678.64,485.62C-706.56,485.62,-729.19,462.98,-729.19,435.06C-729.19,435.06,-729.19,-435.06,-729.19,-435.06C-729.19,-462.98,-706.56,-485.62,-678.64,-485.62C-678.64,-485.62,678.64,-485.62,678.64,-485.62C706.56,-485.62,729.19,-462.98,729.19,-435.06Z" /></g></g><g id="i2" transform="matrix(1,0,0,1,960.003,226.52)"><path stroke-miterlimit="10" stroke-width="7" stroke="#000000" fill="#e9e7e2" d="M729.19,-11.58C729.19,-11.58,729.19,62.14,729.19,62.14C729.19,62.14,-729.19,62.14,-729.19,62.14C-729.19,62.14,-729.19,-11.58,-729.19,-11.58C-729.19,-39.5,-706.56,-62.14,-678.64,-62.14C-678.64,-62.14,678.64,-62.14,678.64,-62.14C706.56,-62.14,729.19,-39.5,729.19,-11.58Z" /></g></g><g mask="url(#i1)" id="i5"><g transform="translate(1432.015,-30.002)"><animateTransform repeatCount="indefinite" type="translate" attributeName="transform" dur="2.84s" begin="0s" calcMode="spline" values="1432.015 -30.002; 1432.015 -30.002; 1520.015 361.998; 1520.015 361.998; 1008.015 273.998; 1008.015 273.998; 1096.015 681.998; 1096.015 681.998; 692.015 337.998; 692.015 337.998; 1432.015 -30.002; 1432.015 -30.002; 1520.015 361.998; 1520.015 361.998; 1008.015 273.998; 1008.015 273.998; 1096.015 681.998; 1096.015 681.998; 692.015 337.998; 692.015 337.998; 1432.015 -30.002; 1432.015 -30.002; 1520.015 361.998; 1520.015 361.998; 1008.015 273.998; 1008.015 273.998; 1096.015 681.998; 1096.015 681.998; 692.015 337.998; 692.015 337.998" keyTimes="0; 0.070324; 0.070423; 0.140746; 0.140845; 0.211169; 0.211268; 0.281591; 0.28169; 0.352014; 0.352113; 0.422436; 0.422535; 0.492859; 0.492958; 0.563282; 0.563381; 0.633704; 0.633803; 0.704127; 0.704226; 0.774549; 0.774648; 0.844972; 0.845071; 0.915394; 0.915493; 0.985817; 0.985915; 1" keySplines="0 0 1 1; 0 0 1 1; 0 0 1 1; 0 0 1 1; 0 0 1 1; 0 0 1 1; 0 0 1 1; 0 0 1 1; 0 0 1 1; 0 0 1 1; 0 0 1 1; 0 0 1 1; 0 0 1 1; 0 0 1 1; 0 0 1 1; 0 0 1 1; 0 0 1 1; 0 0 1 1; 0 0 1 1; 0 0 1 1; 0 0 1 1; 0 0 1 1; 0 0 1 1; 0 0 1 1; 0 0 1 1; 0 0 1 1; 0 0 1 1; 0 0 1 1; 0 0 1 1" fill="freeze" /><g transform="scale(1,1) translate(0,0)"><g id="i2"><path stroke-miterlimit="10" stroke-width="8" stroke="#ffffff" d="M-1124.62,-532.93C-1091.962,-162.682,-892.049,73.705,-712.876,71.665C-573.345,70.076,-411.893,-76.501,-421.982,-206.122C-436.545,-393.213,-807.865,-537.03,-883.599,-459.399C-996.619,-343.549,-592.03,409.662,-319.855,365.793C-50.337,322.352,118.423,-507.367,-78.833,-630.973C-302.36,-771.04,-1130.644,-88.831,-1026.578,210.559C-904.118,562.869,504.13,369.819,505.337,312.687C506.418,261.539,-620.526,333.979,-675.933,68.034C-724.803,-166.534,71.487,-608.875,280.656,-434.888C385.118,-347.996,282.523,-157.807,374.613,247.325C393.113,328.71,466.151,688.242,533.932,684.431C629.958,679.032,758.182,-57.527,538.018,-177.526C403.926,-250.612,264.631,-27.384,-17.557,-30.462C-408.484,-34.726,-823.343,-470.579,-752.876,-692.25C-671.153,-949.328,114.214,-1078.428,395.039,-765.781C703.529,-422.334,448.005,504.098,-111.515,647.665C-676.322,792.589,-1321.797,80.995,-1239.004,-320.505C-1142.66,-787.717,10.031,-1175.377,615.635,-688.164C910.79,-450.709,1169.918,70.118,934.273,492.431C753.235,816.879,323.666,1005.227,6.954,888.687C-454.637,718.836,-625.861,-80.008,-279.004,-549.271C-26.05,-891.491,473.956,-1019.893,819.89,-867.909C1419.81,-604.337,1579.073,512.466,1093.592,1023.495C607.074,1535.615,-471.123,1380.614,-944.876,713.027C-1502.978,-73.42,-997.649,-1254.747,-524.11,-1354.037C85.277,-1481.812,1339.707,36.043,868.911,884.601C537.418,1482.081,-604.28,1666.426,-1079.684,1240.006C-1566.378,803.46,-1514.795,-416.752,-524.11,-1472.505" /></g></g></g></g><g display="none" transform="matrix(1,0,0,1,960.003,214.52)" id="i6"><g id="i2" fill="#ff0000"><path stroke-miterlimit="10" stroke-width="7" stroke="#000000" d="M729.19,-11.58C729.19,-11.58,729.19,62.14,729.19,62.14C729.19,62.14,-729.19,62.14,-729.19,62.14C-729.19,62.14,-729.19,-11.58,-729.19,-11.58C-729.19,-39.5,-706.56,-62.14,-678.64,-62.14C-678.64,-62.14,678.64,-62.14,678.64,-62.14C706.56,-62.14,729.19,-39.5,729.19,-11.58Z" /></g></g><g transform="matrix(1,0,0,1,960.003,214.52)" id="i7"><g id="i2"><path stroke-miterlimit="10" stroke-width="7" stroke="#000000" d="M729.19,-11.58C729.19,-11.58,729.19,62.14,729.19,62.14C729.19,62.14,-729.19,62.14,-729.19,62.14C-729.19,62.14,-729.19,-11.58,-729.19,-11.58C-729.19,-39.5,-706.56,-62.14,-678.64,-62.14C-678.64,-62.14,678.64,-62.14,678.64,-62.14C706.56,-62.14,729.19,-39.5,729.19,-11.58Z" /></g></g><g transform="matrix(1,0,0,1,0,-12)" id="i8"><g id="i9" transform="matrix(1,0,0,1,339.749,226.52)"><path stroke-miterlimit="10" stroke-width="7" stroke="#000000" fill="#ff1010" d="M25.66,0C25.66,14.171,14.171,25.66,0,25.66C-14.171,25.66,-25.66,14.171,-25.66,0C-25.66,-14.171,-14.171,-25.66,0,-25.66C14.171,-25.66,25.66,-14.171,25.66,0Z" /></g><g id="i4" transform="matrix(1,0,0,1,408.685,226.52)"><path stroke-miterlimit="10" stroke-width="7" stroke="#000000" fill="#ffb30b" d="M25.66,0C25.66,14.171,14.171,25.66,0,25.66C-14.171,25.66,-25.66,14.171,-25.66,0C-25.66,-14.171,-14.171,-25.66,0,-25.66C14.171,-25.66,25.66,-14.171,25.66,0Z" /></g><g id="i2" transform="matrix(1,0,0,1,477.621,226.52)"><path stroke-miterlimit="10" stroke-width="7" stroke="#000000" fill="#0820ff" d="M25.66,0C25.66,14.171,14.171,25.66,0,25.66C-14.171,25.66,-25.66,14.171,-25.66,0C-25.66,-14.171,-14.171,-25.66,0,-25.66C14.171,-25.66,25.66,-14.171,25.66,0Z" /></g></g><g id="i10"><g transform="translate(511.5,673)"><g transform="scale(1,1)"><animateTransform repeatCount="indefinite" type="scale" attributeName="transform" dur="2.84s" begin="0s" calcMode="spline" values="1 1; 0.95 0.95; 1 1; 1 1" keyTimes="0; 0.070423; 0.140845; 1" keySplines="0.333 0 0.667 1; 0.333 0 0.667 1; 0 0 1 1" fill="freeze" /><g transform="translate(-511.5,-685)"><g id="i4" transform="matrix(1,0,0,1,0,0)"><g id="i11" transform="matrix(1,0,0,1,0,0)"><g id="i4" transform="matrix(1,0,0,1,520,692.5)"><path stroke-miterlimit="10" stroke-width="2" stroke="#f5fdff" fill="#000000" d="M129.66,236C129.66,236,-129.66,236,-129.66,236C-152.492,236,-171,217.492,-171,194.66C-171,194.66,-171,-194.66,-171,-194.66C-171,-217.492,-152.492,-236,-129.66,-236C-129.66,-236,129.66,-236,129.66,-236C152.492,-236,171,-217.492,171,-194.66C171,-194.66,171,194.66,171,194.66C171,217.492,152.492,236,129.66,236Z" /></g><g id="i2" transform="matrix(1,0,0,1,503,677.5)"><path stroke-miterlimit="10" stroke-width="2" stroke="#000000" fill="#f5fdff" d="M129.66,236C129.66,236,-129.66,236,-129.66,236C-152.492,236,-171,217.492,-171,194.66C-171,194.66,-171,78.723,-171,78.723C-171,78.723,-171,-194.66,-171,-194.66C-171,-217.492,-152.492,-236,-129.66,-236C-129.66,-236,129.66,-236,129.66,-236C152.492,-236,171,-217.492,171,-194.66C171,-194.66,171,194.66,171,194.66C171,217.492,152.492,236,129.66,236Z" /></g></g><g id="i12" transform="matrix(1,0,0,1,503,756.223)"><path stroke-miterlimit="10" stroke-width="2" stroke="#000000" fill="#f5fdff" d="M-171,0C-171,0,171,0,171,0" /></g><g id="i9" transform="matrix(1,0,0,1,503,793.5)"><path stroke-miterlimit="10" stroke-width="1.746" stroke="#000000" fill="#f5fdff" d="M95,8C95,8,-95,8,-95,8C-95,8,-95,-8,-95,-8C-95,-8,95,-8,95,-8C95,-8,95,8,95,8Z" /></g><g id="i4" transform="matrix(1,0,0,1,503,818.5)"><path stroke-miterlimit="10" stroke-width="1.746" stroke="#000000" fill="#f5fdff" d="M95,8C95,8,-95,8,-95,8C-95,8,-95,-8,-95,-8C-95,-8,95,-8,95,-8C95,-8,95,8,95,8Z" /></g><g id="i2" transform="matrix(1,0,0,1,0,0)"><g id="i11" transform="matrix(1,0,0,1,427.396,866.117)"><path stroke-miterlimit="10" stroke-width="1.249" stroke="#000000" fill="#1fc150" d="M10.956,16.15C10.956,16.15,0.22,10.711,0.22,10.711C0.22,10.711,-10.346,16.47,-10.346,16.47C-10.346,16.47,-8.491,4.58,-8.491,4.58C-8.491,4.58,-17.234,-3.69,-17.234,-3.69C-17.234,-3.69,-5.352,-5.6,-5.352,-5.6C-5.352,-5.6,-0.188,-16.47,-0.188,-16.47C-0.188,-16.47,5.3,-5.76,5.3,-5.76C5.3,-5.76,17.234,-4.208,17.234,-4.208C17.234,-4.208,8.743,4.321,8.743,4.321C8.743,4.321,10.956,16.15,10.956,16.15Z" /></g><g id="i12" transform="matrix(1,0,0,1,465.396,866.117)"><path stroke-miterlimit="10" stroke-width="1.249" stroke="#000000" fill="#1fc150" d="M10.956,16.15C10.956,16.15,0.22,10.711,0.22,10.711C0.22,10.711,-10.346,16.47,-10.346,16.47C-10.346,16.47,-8.491,4.58,-8.491,4.58C-8.491,4.58,-17.234,-3.69,-17.234,-3.69C-17.234,-3.69,-5.352,-5.6,-5.352,-5.6C-5.352,-5.6,-0.188,-16.47,-0.188,-16.47C-0.188,-16.47,5.3,-5.76,5.3,-5.76C5.3,-5.76,17.234,-4.208,17.234,-4.208C17.234,-4.208,8.743,4.321,8.743,4.321C8.743,4.321,10.956,16.15,10.956,16.15Z" /></g><g id="i9" transform="matrix(1,0,0,1,503.396,866.117)"><path stroke-miterlimit="10" stroke-width="1.249" stroke="#000000" fill="#1fc150" d="M10.956,16.15C10.956,16.15,0.22,10.711,0.22,10.711C0.22,10.711,-10.346,16.47,-10.346,16.47C-10.346,16.47,-8.491,4.58,-8.491,4.58C-8.491,4.58,-17.234,-3.69,-17.234,-3.69C-17.234,-3.69,-5.352,-5.6,-5.352,-5.6C-5.352,-5.6,-0.188,-16.47,-0.188,-16.47C-0.188,-16.47,5.3,-5.76,5.3,-5.76C5.3,-5.76,17.234,-4.208,17.234,-4.208C17.234,-4.208,8.743,4.321,8.743,4.321C8.743,4.321,10.956,16.15,10.956,16.15Z" /></g><g id="i4" transform="matrix(1,0,0,1,541.396,866.117)"><path stroke-miterlimit="10" stroke-width="1.249" stroke="#000000" fill="#1fc150" d="M10.956,16.15C10.956,16.15,0.22,10.711,0.22,10.711C0.22,10.711,-10.346,16.47,-10.346,16.47C-10.346,16.47,-8.491,4.58,-8.491,4.58C-8.491,4.58,-17.234,-3.69,-17.234,-3.69C-17.234,-3.69,-5.352,-5.6,-5.352,-5.6C-5.352,-5.6,-0.188,-16.47,-0.188,-16.47C-0.188,-16.47,5.3,-5.76,5.3,-5.76C5.3,-5.76,17.234,-4.208,17.234,-4.208C17.234,-4.208,8.743,4.321,8.743,4.321C8.743,4.321,10.956,16.15,10.956,16.15Z" /></g><g id="i2" transform="matrix(1,0,0,1,579.396,866.117)"><path stroke-miterlimit="10" stroke-width="1.249" stroke="#000000" fill="#1fc150" d="M10.956,16.15C10.956,16.15,0.22,10.711,0.22,10.711C0.22,10.711,-10.346,16.47,-10.346,16.47C-10.346,16.47,-8.491,4.58,-8.491,4.58C-8.491,4.58,-17.234,-3.69,-17.234,-3.69C-17.234,-3.69,-5.352,-5.6,-5.352,-5.6C-5.352,-5.6,-0.188,-16.47,-0.188,-16.47C-0.188,-16.47,5.3,-5.76,5.3,-5.76C5.3,-5.76,17.234,-4.208,17.234,-4.208C17.234,-4.208,8.743,4.321,8.743,4.321C8.743,4.321,10.956,16.15,10.956,16.15Z" /></g></g></g><g id="i2" transform="matrix(1,0,0,1,0,0)"><g id="i9" transform="matrix(1,0,0,1,0,0)"><g id="i4" transform="matrix(1,0,0,1,502.435,584.766)"><path stroke-miterlimit="10" stroke-width="1.345" stroke="#000000" fill="#fed54c" d="M140.945,-42.216C140.945,-42.216,106.515,1.984,106.515,1.984C105.515,3.274,103.655,3.504,102.365,2.494C102.365,2.494,78.955,-15.847,78.955,-15.847C76.915,-17.437,73.965,-15.836,74.185,-13.266C74.185,-13.266,81.155,66.734,81.155,66.734C81.155,66.734,83.945,98.774,83.945,98.774C84.095,100.494,82.735,101.984,80.995,101.984C80.995,101.984,0.515,101.984,0.515,101.984C0.515,101.984,-80.995,102.193,-80.995,102.193C-82.735,102.203,-84.094,100.714,-83.944,98.984C-83.944,98.984,-83.885,98.343,-83.885,98.343C-83.885,98.343,-74.194,-13.046,-74.194,-13.046C-73.965,-15.616,-76.925,-17.216,-78.955,-15.626C-78.955,-15.626,-102.365,2.714,-102.365,2.714C-103.655,3.724,-105.515,3.494,-106.525,2.204C-106.525,2.204,-140.944,-41.986,-140.944,-41.986C-142.054,-43.416,-141.635,-45.496,-140.065,-46.376C-140.065,-46.376,-43.135,-100.907,-43.135,-100.907C-39.585,-102.897,-35.165,-101.936,-32.645,-98.736C-24.735,-88.676,-1.835,-89.786,-0.525,-89.786C0.805,-89.786,24.605,-88.827,32.665,-99.057C35.155,-102.227,39.575,-103.126,43.085,-101.146C43.085,-101.146,140.056,-46.597,140.056,-46.597C141.636,-45.717,142.055,-43.636,140.945,-42.216Z" /></g><g id="i2" transform="matrix(1,0,0,1,0,0)"><g id="i4" transform="matrix(1,0,0,1,534.077,553.118)"><path stroke-linejoin="round" stroke-linecap="round" stroke-width="1.345" stroke="#000000" fill="#fed54c" d="M0,22.859C0,22.859,0,22.859,0,22.859C-11.325,22.859,-20.506,13.678,-20.506,2.353C-20.506,2.353,-20.506,-22.859,-20.506,-22.859C-20.506,-22.859,20.506,-22.859,20.506,-22.859C20.506,-22.859,20.506,2.353,20.506,2.353C20.506,13.678,11.325,22.859,0,22.859Z" /></g><g id="i2" transform="matrix(1,0,0,1,534.077,553.118)"><path stroke-linejoin="round" stroke-linecap="round" stroke-width="1.08" stroke="#000000" fill="#fed54c" d="M0,18.362C0,18.362,0,18.362,0,18.362C-9.097,18.362,-16.472,10.987,-16.472,1.89C-16.472,1.89,-16.472,-18.362,-16.472,-18.362C-16.472,-18.362,16.472,-18.362,16.472,-18.362C16.472,-18.362,16.472,1.89,16.472,1.89C16.472,10.987,9.097,18.362,0,18.362Z" /></g></g></g><g id="i4" transform="matrix(1,0,0,1,502.435,669.23)"><path fill="#efc13f" d="M83.945,14.31C84.095,16.03,82.735,17.52,80.995,17.52C80.995,17.52,0.515,17.52,0.515,17.52C0.515,17.52,-80.995,17.73,-80.995,17.73C-82.735,17.74,-84.095,16.25,-83.945,14.52C-83.945,14.52,-83.885,13.88,-83.885,13.88C-83.885,13.88,81.155,-17.73,81.155,-17.73C81.155,-17.73,83.945,14.31,83.945,14.31Z" /></g><g id="i2" transform="matrix(1,0,0,1,0,0)"><g id="i4" transform="matrix(1,0,0,1,502.435,584.766)"><path stroke-miterlimit="10" stroke-width="1.345" stroke="#000000" d="M140.945,-42.216C140.945,-42.216,106.515,1.984,106.515,1.984C105.515,3.274,103.655,3.504,102.365,2.494C102.365,2.494,78.955,-15.847,78.955,-15.847C76.915,-17.437,73.965,-15.836,74.185,-13.266C74.185,-13.266,81.155,66.734,81.155,66.734C81.155,66.734,83.945,98.774,83.945,98.774C84.095,100.494,82.735,101.984,80.995,101.984C80.995,101.984,0.515,101.984,0.515,101.984C0.515,101.984,-80.995,102.193,-80.995,102.193C-82.735,102.203,-84.094,100.714,-83.944,98.984C-83.944,98.984,-83.885,98.343,-83.885,98.343C-83.885,98.343,-74.194,-13.046,-74.194,-13.046C-73.965,-15.616,-76.925,-17.216,-78.955,-15.626C-78.955,-15.626,-102.365,2.714,-102.365,2.714C-103.655,3.724,-105.515,3.494,-106.525,2.204C-106.525,2.204,-140.944,-41.986,-140.944,-41.986C-142.054,-43.416,-141.635,-45.496,-140.065,-46.376C-140.065,-46.376,-43.135,-100.907,-43.135,-100.907C-39.585,-102.897,-35.165,-101.936,-32.645,-98.736C-24.735,-88.676,-1.835,-89.786,-0.525,-89.786C0.805,-89.786,24.605,-88.827,32.665,-99.057C35.155,-102.227,39.575,-103.126,43.085,-101.146C43.085,-101.146,140.056,-46.597,140.056,-46.597C141.636,-45.717,142.055,-43.636,140.945,-42.216Z" /></g><g id="i2" transform="matrix(1,0,0,1,0,0)"><g id="i4" transform="matrix(1,0,0,1,534.077,553.118)"><path stroke-linejoin="round" stroke-linecap="round" stroke-width="1.345" stroke="#000000" d="M0,22.859C0,22.859,0,22.859,0,22.859C-11.325,22.859,-20.506,13.678,-20.506,2.353C-20.506,2.353,-20.506,-22.859,-20.506,-22.859C-20.506,-22.859,20.506,-22.859,20.506,-22.859C20.506,-22.859,20.506,2.353,20.506,2.353C20.506,13.678,11.325,22.859,0,22.859Z" /></g><g id="i2" transform="matrix(1,0,0,1,534.077,553.118)"><path stroke-linejoin="round" stroke-linecap="round" stroke-width="1.08" stroke="#000000" d="M0,18.362C0,18.362,0,18.362,0,18.362C-9.097,18.362,-16.472,10.987,-16.472,1.89C-16.472,1.89,-16.472,-18.362,-16.472,-18.362C-16.472,-18.362,16.472,-18.362,16.472,-18.362C16.472,-18.362,16.472,1.89,16.472,1.89C16.472,10.987,9.097,18.362,0,18.362Z" /></g></g></g></g></g></g></g></g><g id="i13"><g transform="translate(960,673)"><g transform="scale(1,1)"><animateTransform repeatCount="indefinite" type="scale" attributeName="transform" dur="2.84s" begin="0s" calcMode="spline" values="1 1; 1 1; 0.95 0.95; 1 1; 1 1" keyTimes="0; 0.28169; 0.352113; 0.422535; 1" keySplines="0 0 1 1; 0.333 0 0.667 1; 0.333 0 0.667 1; 0 0 1 1" fill="freeze" /><g transform="translate(-960,-685)"><g id="i4" transform="matrix(1,0,0,1,0,0)"><g id="i11" transform="matrix(1,0,0,1,0,0)"><g id="i4" transform="matrix(1,0,0,1,968.5,692.5)"><path stroke-miterlimit="10" stroke-width="2" stroke="#f5fdff" fill="#000000" d="M129.66,236C129.66,236,-129.66,236,-129.66,236C-152.492,236,-171,217.492,-171,194.66C-171,194.66,-171,-194.66,-171,-194.66C-171,-217.492,-152.492,-236,-129.66,-236C-129.66,-236,129.66,-236,129.66,-236C152.492,-236,171,-217.492,171,-194.66C171,-194.66,171,194.66,171,194.66C171,217.492,152.492,236,129.66,236Z" /></g><g id="i2" transform="matrix(1,0,0,1,951.5,677.5)"><path stroke-miterlimit="10" stroke-width="2" stroke="#000000" fill="#f5fdff" d="M129.66,236C129.66,236,-129.66,236,-129.66,236C-152.492,236,-171,217.492,-171,194.66C-171,194.66,-171,78.723,-171,78.723C-171,78.723,-171,-194.66,-171,-194.66C-171,-217.492,-152.492,-236,-129.66,-236C-129.66,-236,129.66,-236,129.66,-236C152.492,-236,171,-217.492,171,-194.66C171,-194.66,171,194.66,171,194.66C171,217.492,152.492,236,129.66,236Z" /></g></g><g id="i12" transform="matrix(1,0,0,1,951.5,756.223)"><path stroke-miterlimit="10" stroke-width="2" stroke="#000000" fill="#f5fdff" d="M-171,0C-171,0,171,0,171,0" /></g><g id="i9" transform="matrix(1,0,0,1,951.5,793.5)"><path stroke-miterlimit="10" stroke-width="1.746" stroke="#000000" fill="#f5fdff" d="M95,8C95,8,-95,8,-95,8C-95,8,-95,-8,-95,-8C-95,-8,95,-8,95,-8C95,-8,95,8,95,8Z" /></g><g id="i4" transform="matrix(1,0,0,1,951.5,818.5)"><path stroke-miterlimit="10" stroke-width="1.746" stroke="#000000" fill="#f5fdff" d="M95,8C95,8,-95,8,-95,8C-95,8,-95,-8,-95,-8C-95,-8,95,-8,95,-8C95,-8,95,8,95,8Z" /></g><g id="i2" transform="matrix(1,0,0,1,0,0)"><g id="i11" transform="matrix(1,0,0,1,875.896,866.117)"><path stroke-miterlimit="10" stroke-width="1.249" stroke="#000000" fill="#1fc150" d="M10.956,16.15C10.956,16.15,0.22,10.711,0.22,10.711C0.22,10.711,-10.346,16.47,-10.346,16.47C-10.346,16.47,-8.491,4.58,-8.491,4.58C-8.491,4.58,-17.234,-3.69,-17.234,-3.69C-17.234,-3.69,-5.352,-5.6,-5.352,-5.6C-5.352,-5.6,-0.188,-16.47,-0.188,-16.47C-0.188,-16.47,5.3,-5.76,5.3,-5.76C5.3,-5.76,17.234,-4.208,17.234,-4.208C17.234,-4.208,8.743,4.321,8.743,4.321C8.743,4.321,10.956,16.15,10.956,16.15Z" /></g><g id="i12" transform="matrix(1,0,0,1,913.896,866.117)"><path stroke-miterlimit="10" stroke-width="1.249" stroke="#000000" fill="#1fc150" d="M10.956,16.15C10.956,16.15,0.22,10.711,0.22,10.711C0.22,10.711,-10.346,16.47,-10.346,16.47C-10.346,16.47,-8.491,4.58,-8.491,4.58C-8.491,4.58,-17.234,-3.69,-17.234,-3.69C-17.234,-3.69,-5.352,-5.6,-5.352,-5.6C-5.352,-5.6,-0.188,-16.47,-0.188,-16.47C-0.188,-16.47,5.3,-5.76,5.3,-5.76C5.3,-5.76,17.234,-4.208,17.234,-4.208C17.234,-4.208,8.743,4.321,8.743,4.321C8.743,4.321,10.956,16.15,10.956,16.15Z" /></g><g id="i9" transform="matrix(1,0,0,1,951.896,866.117)"><path stroke-miterlimit="10" stroke-width="1.249" stroke="#000000" fill="#1fc150" d="M10.956,16.15C10.956,16.15,0.22,10.711,0.22,10.711C0.22,10.711,-10.346,16.47,-10.346,16.47C-10.346,16.47,-8.491,4.58,-8.491,4.58C-8.491,4.58,-17.234,-3.69,-17.234,-3.69C-17.234,-3.69,-5.352,-5.6,-5.352,-5.6C-5.352,-5.6,-0.188,-16.47,-0.188,-16.47C-0.188,-16.47,5.3,-5.76,5.3,-5.76C5.3,-5.76,17.234,-4.208,17.234,-4.208C17.234,-4.208,8.743,4.321,8.743,4.321C8.743,4.321,10.956,16.15,10.956,16.15Z" /></g><g id="i4" transform="matrix(1,0,0,1,989.896,866.117)"><path stroke-miterlimit="10" stroke-width="1.249" stroke="#000000" fill="#1fc150" d="M10.956,16.15C10.956,16.15,0.22,10.711,0.22,10.711C0.22,10.711,-10.346,16.47,-10.346,16.47C-10.346,16.47,-8.491,4.58,-8.491,4.58C-8.491,4.58,-17.234,-3.69,-17.234,-3.69C-17.234,-3.69,-5.352,-5.6,-5.352,-5.6C-5.352,-5.6,-0.188,-16.47,-0.188,-16.47C-0.188,-16.47,5.3,-5.76,5.3,-5.76C5.3,-5.76,17.234,-4.208,17.234,-4.208C17.234,-4.208,8.743,4.321,8.743,4.321C8.743,4.321,10.956,16.15,10.956,16.15Z" /></g><g id="i2" transform="matrix(1,0,0,1,1027.896,866.117)"><path stroke-miterlimit="10" stroke-width="1.249" stroke="#000000" fill="#1fc150" d="M10.956,16.15C10.956,16.15,0.22,10.711,0.22,10.711C0.22,10.711,-10.346,16.47,-10.346,16.47C-10.346,16.47,-8.491,4.58,-8.491,4.58C-8.491,4.58,-17.234,-3.69,-17.234,-3.69C-17.234,-3.69,-5.352,-5.6,-5.352,-5.6C-5.352,-5.6,-0.188,-16.47,-0.188,-16.47C-0.188,-16.47,5.3,-5.76,5.3,-5.76C5.3,-5.76,17.234,-4.208,17.234,-4.208C17.234,-4.208,8.743,4.321,8.743,4.321C8.743,4.321,10.956,16.15,10.956,16.15Z" /></g></g></g><g id="i2" transform="matrix(1,0,0,1,0,0)"><g id="i2" transform="matrix(1,0,0,1,0,0)"><g id="i14" transform="matrix(1,0,0,1,951.5,596.195)"><path stroke-miterlimit="10" stroke-width="2" stroke="#000000" fill="#2dbbed" d="M76.21,113.475C76.21,113.475,11.24,119.305,11.24,119.305C11.24,119.305,11.21,118.845,11.21,118.845C11.21,118.845,11.18,118.345,11.18,118.345C11.18,118.345,0,-61.005,0,-61.005C0,-61.005,-11.18,118.225,-11.18,118.225C-11.18,118.225,-11.24,119.215,-11.24,119.215C-11.24,119.215,-11.24,119.305,-11.24,119.305C-11.24,119.305,-76.21,113.475,-76.21,113.475C-76.21,113.475,-74.85,102.925,-74.85,102.925C-74.85,102.925,-73.86,95.235,-73.86,95.235C-73.86,95.235,-47.33,-110.975,-47.33,-110.975C-47.33,-110.975,-45.49,-119.305,-45.49,-119.305C-45.49,-119.305,45.49,-119.305,45.49,-119.305C45.49,-119.305,47.33,-110.975,47.33,-110.975C47.33,-110.975,73.81,94.865,73.81,94.865C73.81,94.865,74.87,103.045,74.87,103.045C74.87,103.045,76.21,113.475,76.21,113.475Z" /></g><g id="i15" transform="matrix(1,0,0,1,951.912,503.998)"><path stroke-linejoin="round" stroke-linecap="round" stroke-width="0.642" stroke="#000000" d="M3.743,-27.108C3.743,-27.108,3.743,27.108,3.743,27.108C3.743,27.108,-3.743,27.108,-3.743,27.108" /></g><g id="i16" transform="matrix(1,0,0,1,983.773,495.629)"><path stroke-linejoin="round" stroke-linecap="round" stroke-width="0.642" stroke="#000000" d="M11.452,10.411C-1.197,10.411,-11.452,1.088,-11.452,-10.411" /></g><g id="i17" transform="matrix(1,0,0,1,920.476,495.629)"><path stroke-linejoin="round" stroke-linecap="round" stroke-width="0.642" stroke="#000000" d="M-11.452,10.411C1.197,10.411,11.452,1.088,11.452,-10.411" /></g><g id="i11" transform="matrix(1,0,0,1,951.5,481.054)"><path fill="#000000" d="M47.331,4.164C47.331,4.164,-47.331,4.164,-47.331,4.164C-47.331,4.164,-45.486,-4.164,-45.486,-4.164C-45.486,-4.164,45.486,-4.164,45.486,-4.164C45.486,-4.164,47.331,4.164,47.331,4.164Z" /></g><g id="i12" transform="matrix(1,0,0,1,995.195,707.37)"><path fill="#23b2d8" d="M32.515,2.3C32.515,2.3,-32.455,8.13,-32.455,8.13C-32.455,8.13,-32.485,7.67,-32.485,7.67C-32.485,7.67,-32.515,7.17,-32.515,7.17C-32.515,7.17,31.175,-8.13,31.175,-8.13C31.175,-8.13,32.515,2.3,32.515,2.3Z" /></g><g id="i9" transform="matrix(1,0,0,1,907.805,707.31)"><path fill="#23b2d8" d="M32.515,7.11C32.515,7.11,32.455,8.1,32.455,8.1C32.455,8.1,32.455,8.19,32.455,8.19C32.455,8.19,-32.515,2.36,-32.515,2.36C-32.515,2.36,-31.155,-8.19,-31.155,-8.19C-31.155,-8.19,32.515,7.11,32.515,7.11Z" /></g><g id="i4" transform="matrix(1,0,0,1,951.5,596.195)"><path stroke-miterlimit="10" stroke-width="0.833" stroke="#000000" d="M76.21,113.475C76.21,113.475,11.24,119.305,11.24,119.305C11.24,119.305,11.21,118.845,11.21,118.845C11.21,118.845,11.18,118.345,11.18,118.345C11.18,118.345,0,-61.005,0,-61.005C0,-61.005,-11.24,119.215,-11.24,119.215C-11.24,119.215,-11.24,119.305,-11.24,119.305C-11.24,119.305,-76.21,113.475,-76.21,113.475C-76.21,113.475,-73.86,95.235,-73.86,95.235C-73.86,95.235,-47.33,-110.975,-47.33,-110.975C-47.33,-110.975,-45.49,-119.305,-45.49,-119.305C-45.49,-119.305,45.49,-119.305,45.49,-119.305C45.49,-119.305,47.33,-110.975,47.33,-110.975C47.33,-110.975,73.81,94.865,73.81,94.865C73.81,94.865,74.87,103.045,74.87,103.045C74.87,103.045,76.21,113.475,76.21,113.475Z" /></g><g id="i2" transform="matrix(1,0,0,1,951.5,596.195)"><path stroke-miterlimit="10" stroke-width="2" stroke="#000000" d="M76.21,113.475C76.21,113.475,11.24,119.305,11.24,119.305C11.24,119.305,11.21,118.845,11.21,118.845C11.21,118.845,11.18,118.345,11.18,118.345C11.18,118.345,0,-61.005,0,-61.005C0,-61.005,-11.24,119.215,-11.24,119.215C-11.24,119.215,-11.24,119.305,-11.24,119.305C-11.24,119.305,-76.21,113.475,-76.21,113.475C-76.21,113.475,-73.86,95.235,-73.86,95.235C-73.86,95.235,-47.33,-110.975,-47.33,-110.975C-47.33,-110.975,-45.49,-119.305,-45.49,-119.305C-45.49,-119.305,45.49,-119.305,45.49,-119.305C45.49,-119.305,47.33,-110.975,47.33,-110.975C47.33,-110.975,73.81,94.865,73.81,94.865C73.81,94.865,74.87,103.045,74.87,103.045C74.87,103.045,76.21,113.475,76.21,113.475Z" /></g></g></g></g></g></g></g><g id="i18"><g transform="translate(1408.5,673)"><g transform="scale(1,1)"><animateTransform repeatCount="indefinite" type="scale" attributeName="transform" dur="2.84s" begin="0s" calcMode="spline" values="1 1; 1 1; 0.95 0.95; 1 1; 1 1" keyTimes="0; 0.56338; 0.633803; 0.704225; 1" keySplines="0 0 1 1; 0.333 0 0.667 1; 0.333 0 0.667 1; 0 0 1 1" fill="freeze" /><g transform="translate(-1408.5,-685)"><g id="i4" transform="matrix(1,0,0,1,0,0)"><g id="i11" transform="matrix(1,0,0,1,0,0)"><g id="i4" transform="matrix(1,0,0,1,1417,692.5)"><path stroke-miterlimit="10" stroke-width="2" stroke="#f5fdff" fill="#000000" d="M129.66,236C129.66,236,-129.66,236,-129.66,236C-152.492,236,-171,217.492,-171,194.66C-171,194.66,-171,-194.66,-171,-194.66C-171,-217.492,-152.492,-236,-129.66,-236C-129.66,-236,129.66,-236,129.66,-236C152.492,-236,171,-217.492,171,-194.66C171,-194.66,171,194.66,171,194.66C171,217.492,152.492,236,129.66,236Z" /></g><g id="i2" transform="matrix(1,0,0,1,1400,677.5)"><path stroke-miterlimit="10" stroke-width="2" stroke="#000000" fill="#f5fdff" d="M129.66,236C129.66,236,-129.66,236,-129.66,236C-152.492,236,-171,217.492,-171,194.66C-171,194.66,-171,78.723,-171,78.723C-171,78.723,-171,-194.66,-171,-194.66C-171,-217.492,-152.492,-236,-129.66,-236C-129.66,-236,129.66,-236,129.66,-236C152.492,-236,171,-217.492,171,-194.66C171,-194.66,171,194.66,171,194.66C171,217.492,152.492,236,129.66,236Z" /></g></g><g id="i12" transform="matrix(1,0,0,1,1400,756.223)"><path stroke-miterlimit="10" stroke-width="2" stroke="#000000" fill="#f5fdff" d="M-171,0C-171,0,171,0,171,0" /></g><g id="i9" transform="matrix(1,0,0,1,1400,793.5)"><path stroke-miterlimit="10" stroke-width="1.746" stroke="#000000" fill="#f5fdff" d="M95,8C95,8,-95,8,-95,8C-95,8,-95,-8,-95,-8C-95,-8,95,-8,95,-8C95,-8,95,8,95,8Z" /></g><g id="i4" transform="matrix(1,0,0,1,1400,818.5)"><path stroke-miterlimit="10" stroke-width="1.746" stroke="#000000" fill="#f5fdff" d="M95,8C95,8,-95,8,-95,8C-95,8,-95,-8,-95,-8C-95,-8,95,-8,95,-8C95,-8,95,8,95,8Z" /></g><g id="i2" transform="matrix(1,0,0,1,0,0)"><g id="i11" transform="matrix(1,0,0,1,1324.396,866.117)"><path stroke-miterlimit="10" stroke-width="1.249" stroke="#000000" fill="#1fc150" d="M10.956,16.15C10.956,16.15,0.22,10.711,0.22,10.711C0.22,10.711,-10.346,16.47,-10.346,16.47C-10.346,16.47,-8.491,4.58,-8.491,4.58C-8.491,4.58,-17.234,-3.69,-17.234,-3.69C-17.234,-3.69,-5.352,-5.6,-5.352,-5.6C-5.352,-5.6,-0.188,-16.47,-0.188,-16.47C-0.188,-16.47,5.3,-5.76,5.3,-5.76C5.3,-5.76,17.234,-4.208,17.234,-4.208C17.234,-4.208,8.743,4.321,8.743,4.321C8.743,4.321,10.956,16.15,10.956,16.15Z" /></g><g id="i12" transform="matrix(1,0,0,1,1362.396,866.117)"><path stroke-miterlimit="10" stroke-width="1.249" stroke="#000000" fill="#1fc150" d="M10.956,16.15C10.956,16.15,0.22,10.711,0.22,10.711C0.22,10.711,-10.346,16.47,-10.346,16.47C-10.346,16.47,-8.491,4.58,-8.491,4.58C-8.491,4.58,-17.234,-3.69,-17.234,-3.69C-17.234,-3.69,-5.352,-5.6,-5.352,-5.6C-5.352,-5.6,-0.188,-16.47,-0.188,-16.47C-0.188,-16.47,5.3,-5.76,5.3,-5.76C5.3,-5.76,17.234,-4.208,17.234,-4.208C17.234,-4.208,8.743,4.321,8.743,4.321C8.743,4.321,10.956,16.15,10.956,16.15Z" /></g><g id="i9" transform="matrix(1,0,0,1,1400.396,866.117)"><path stroke-miterlimit="10" stroke-width="1.249" stroke="#000000" fill="#1fc150" d="M10.956,16.15C10.956,16.15,0.22,10.711,0.22,10.711C0.22,10.711,-10.346,16.47,-10.346,16.47C-10.346,16.47,-8.491,4.58,-8.491,4.58C-8.491,4.58,-17.234,-3.69,-17.234,-3.69C-17.234,-3.69,-5.352,-5.6,-5.352,-5.6C-5.352,-5.6,-0.188,-16.47,-0.188,-16.47C-0.188,-16.47,5.3,-5.76,5.3,-5.76C5.3,-5.76,17.234,-4.208,17.234,-4.208C17.234,-4.208,8.743,4.321,8.743,4.321C8.743,4.321,10.956,16.15,10.956,16.15Z" /></g><g id="i4" transform="matrix(1,0,0,1,1438.396,866.117)"><path stroke-miterlimit="10" stroke-width="1.249" stroke="#000000" fill="#1fc150" d="M10.956,16.15C10.956,16.15,0.22,10.711,0.22,10.711C0.22,10.711,-10.346,16.47,-10.346,16.47C-10.346,16.47,-8.491,4.58,-8.491,4.58C-8.491,4.58,-17.234,-3.69,-17.234,-3.69C-17.234,-3.69,-5.352,-5.6,-5.352,-5.6C-5.352,-5.6,-0.188,-16.47,-0.188,-16.47C-0.188,-16.47,5.3,-5.76,5.3,-5.76C5.3,-5.76,17.234,-4.208,17.234,-4.208C17.234,-4.208,8.743,4.321,8.743,4.321C8.743,4.321,10.956,16.15,10.956,16.15Z" /></g><g id="i2" transform="matrix(1,0,0,1,1476.396,866.117)"><path stroke-miterlimit="10" stroke-width="1.249" stroke="#000000" fill="#1fc150" d="M10.956,16.15C10.956,16.15,0.22,10.711,0.22,10.711C0.22,10.711,-10.346,16.47,-10.346,16.47C-10.346,16.47,-8.491,4.58,-8.491,4.58C-8.491,4.58,-17.234,-3.69,-17.234,-3.69C-17.234,-3.69,-5.352,-5.6,-5.352,-5.6C-5.352,-5.6,-0.188,-16.47,-0.188,-16.47C-0.188,-16.47,5.3,-5.76,5.3,-5.76C5.3,-5.76,17.234,-4.208,17.234,-4.208C17.234,-4.208,8.743,4.321,8.743,4.321C8.743,4.321,10.956,16.15,10.956,16.15Z" /></g></g></g><g id="i2" transform="matrix(1,0,0,1,0,0)"><g id="i16" transform="matrix(1,0,0,1,1398.746,553.873)"><path stroke-miterlimit="10" stroke-width="0.836" stroke="#000000" fill="#8700c6" d="M63.94,22.567C63.94,22.567,63.94,41.373,63.94,41.373C63.94,41.373,-63.94,41.373,-63.94,41.373C-63.94,41.373,-63.94,22.567,-63.94,22.567C-63.94,-12.746,-35.313,-41.373,0,-41.373C17.657,-41.373,33.642,-34.219,45.214,-22.647C56.786,-11.075,63.94,4.91,63.94,22.567Z" /></g><g id="i17" transform="matrix(1,0,0,1,1400,625.744)"><path stroke-miterlimit="10" stroke-width="0.836" stroke="#000000" fill="#8700c6" d="M140,4.189C140,4.189,98.209,34.278,60.083,30.099C21.953,25.92,19.642,9.203,-7.522,6.278C-34.686,3.353,-57.254,7.114,-92.358,9.204C-123.158,11.039,-136.586,-13.506,-139.415,-19.557C-139.812,-20.401,-140,-20.886,-140,-20.886C-140,-20.886,-65.194,-30.498,-65.194,-30.498C-65.194,-30.498,62.687,-30.498,62.687,-30.498C62.687,-30.498,139.202,3.83,139.202,3.83C139.202,3.83,140,4.189,140,4.189Z" /></g><g id="i11" transform="matrix(1,0,0,1,1400.292,631.214)"><path fill="#7a0abc" d="M139.707,-1.281C139.707,-1.281,97.916,28.808,59.79,24.629C21.66,20.45,19.349,3.733,-7.815,0.808C-34.979,-2.117,-57.547,1.643,-92.651,3.733C-123.451,5.568,-136.878,-18.976,-139.707,-25.027C-133.338,-20.229,-122.33,-13.952,-103.516,-7.55C-64.232,5.823,-16.591,-16.201,19.976,-14.174C56.543,-12.147,74.932,6.659,115.887,1.644C125.298,0.491,132.854,-0.617,138.909,-1.641C138.909,-1.641,139.707,-1.281,139.707,-1.281Z" /></g><g id="i12" transform="matrix(1,0,0,1,1400,625.744)"><path stroke-miterlimit="10" stroke-width="0.836" stroke="#000000" d="M140,4.189C140,4.189,98.209,34.278,60.083,30.099C21.953,25.92,19.642,9.203,-7.522,6.278C-34.686,3.353,-57.254,7.114,-92.358,9.204C-123.158,11.039,-136.586,-13.506,-139.415,-19.557C-139.812,-20.401,-140,-20.886,-140,-20.886C-140,-20.886,-65.194,-30.498,-65.194,-30.498C-65.194,-30.498,62.687,-30.498,62.687,-30.498C62.687,-30.498,139.202,3.83,139.202,3.83C139.202,3.83,140,4.189,140,4.189Z" /></g><g id="i9" transform="matrix(1,0,0,1,1398.746,588.769)"><path fill="#330e49" d="M63.94,-6.478C63.94,-6.478,63.94,6.478,63.94,6.478C63.94,6.478,-63.94,6.478,-63.94,6.478C-63.94,6.478,-63.94,-6.478,-63.94,-6.478C-63.94,-6.478,63.94,-6.478,63.94,-6.478Z" /></g><g id="i4" transform="matrix(1,0,0,1,0,0)"><g id="i12" transform="matrix(1,0,0,1,1439.284,586.47)"><path stroke-miterlimit="10" stroke-width="0.912" stroke="#000000" fill="#2dbbed" d="M17.552,0C17.552,9.694,9.694,17.552,0,17.552C-9.694,17.552,-17.552,9.694,-17.552,0C-17.552,-9.694,-9.694,-17.552,0,-17.552C9.694,-17.552,17.552,-9.694,17.552,0Z" /></g><g id="i9" transform="matrix(1,0,0,1,1439.284,586.47)"><path stroke-miterlimit="10" stroke-width="0.912" stroke="#000000" fill="#41caef" d="M10.666,4.443C8.212,10.334,1.448,13.12,-4.443,10.666C-10.334,8.212,-13.12,1.448,-10.666,-4.443C-8.212,-10.334,-1.448,-13.12,4.443,-10.666C10.334,-8.212,13.12,-1.448,10.666,4.443Z" /></g><g id="i4" transform="matrix(1,0,0,1,1439.284,586.47)"><path stroke-miterlimit="10" stroke-width="0.912" stroke="#000000" fill="#4cb9d3" d="M6.399,0C6.399,3.534,3.534,6.399,0,6.399C-3.534,6.399,-6.399,3.534,-6.399,0C-6.399,-3.534,-3.534,-6.399,0,-6.399C3.534,-6.399,6.399,-3.534,6.399,0Z" /></g><g id="i2" transform="matrix(1,0,0,1,1439.284,586.47)"><path stroke-miterlimit="10" stroke-width="0.912" stroke="#4cb9d3" fill="#000000" d="M2.052,0C2.052,1.133,1.133,2.052,0,2.052C-1.133,2.052,-2.052,1.133,-2.052,0C-2.052,-1.133,-1.133,-2.052,0,-2.052C1.133,-2.052,2.052,-1.133,2.052,0Z" /></g></g><g id="i2" transform="matrix(1,0,0,1,0,0)"><g id="i12" transform="matrix(1,0,0,1,1420.269,592.53)"><path stroke-miterlimit="10" stroke-width="0.706" stroke="#000000" fill="#2dbbed" d="M13.582,0C13.582,7.501,7.501,13.582,0,13.582C-7.501,13.582,-13.582,7.501,-13.582,0C-13.582,-7.501,-7.501,-13.582,0,-13.582C7.501,-13.582,13.582,-7.501,13.582,0Z" /></g><g id="i9" transform="matrix(1,0,0,1,1420.269,592.53)"><path stroke-miterlimit="10" stroke-width="0.706" stroke="#000000" fill="#41caef" d="M8.253,3.438C6.354,7.996,1.12,10.152,-3.438,8.253C-7.996,6.354,-10.152,1.12,-8.253,-3.438C-6.354,-7.996,-1.12,-10.152,3.438,-8.253C7.996,-6.354,10.152,-1.12,8.253,3.438Z" /></g><g id="i4" transform="matrix(1,0,0,1,1420.269,592.53)"><path stroke-miterlimit="10" stroke-width="0.706" stroke="#000000" fill="#4cb9d3" d="M4.952,0C4.952,2.735,2.735,4.952,0,4.952C-2.735,4.952,-4.952,2.735,-4.952,0C-4.952,-2.735,-2.735,-4.952,0,-4.952C2.735,-4.952,4.952,-2.735,4.952,0Z" /></g><g id="i2" transform="matrix(1,0,0,1,1420.269,592.53)"><path stroke-miterlimit="10" stroke-width="0.706" stroke="#4cb9d3" fill="#000000" d="M1.588,0C1.588,0.877,0.877,1.588,0,1.588C-0.877,1.588,-1.588,0.877,-1.588,0C-1.588,-0.877,-0.877,-1.588,0,-1.588C0.877,-1.588,1.588,-0.877,1.588,0Z" /></g></g></g></g></g></g></g><g id="i19"><g transform="translate(507.658,705.983)"><animateMotion repeatCount="indefinite" dur="2.84s" begin="0s" calcMode="spline" keyTimes="0; 0.140845; 0.28169; 0.422535; 0.563381; 0.704226; 0.985915; 1" keySplines="0 0 1 1; 0.333 0 0.667 1; 0 0 1 1; 0.333 0 0.667 1; 0 0 1 1; 0.333 0 0.667 1; 0 0 1 1" keyPoints="0; 0; 0.242; 0.242; 0.488; 0.488; 1; 1" path="M0 0 C0 0 0 0 0 0 C73.333 0 366.667 0 440 0 C440 0 440 0 440 0 C514.667 0 813.333 0 888 0 C888 0 888 0 888 0 C636 200 119 97 0 0" fill="freeze" /><g transform="scale(1,1)"><animateTransform repeatCount="indefinite" type="scale" attributeName="transform" dur="2.84s" begin="0s" calcMode="spline" values="1 1; 0.95 0.95; 1 1; 1 1; 0.95 0.95; 1 1; 1 1; 0.95 0.95; 1 1; 1 1" keyTimes="0; 0.070423; 0.140845; 0.28169; 0.352113; 0.422535; 0.56338; 0.633803; 0.704225; 1" keySplines="0.333 0 0.667 1; 0.333 0 0.667 1; 0.167 0 0.667 1; 0.333 0 0.667 1; 0.333 0 0.667 1; 0.167 0 0.667 1; 0.333 0 0.667 1; 0.333 0 0.667 1; 0 0 1 1" fill="freeze" /><g transform="translate(-507.658,-717.983)"><g id="i14" transform="matrix(1,0,0,1,647.839,1184.816)"><path stroke-miterlimit="10" stroke-width="4.531" stroke="#000000" fill="#efc8a5" d="M-127.462,-141.923C-127.462,-141.923,127.462,141.923,127.462,141.923" /></g><g id="i15" transform="matrix(1,0,0,1,597.999,1037.273)"><path stroke-miterlimit="10" stroke-width="4.531" stroke="#000000" fill="#efc8a5" d="M-110.735,6.058C-110.735,6.058,-112.626,-37.638,-114.454,-85.378C-116.217,-131.41,-117.922,-181.201,-117.82,-199.204C-117.426,-268.724,-122.592,-321.772,-87.455,-321.773C-64.464,-321.774,-64.087,-257.404,-60.994,-199.204C-58.114,-145.008,-55.789,-93.615,-55.789,-94.87C-55.789,-97.473,-35.4,-137.847,-9.373,-130.906C16.654,-123.965,15.786,-92.733,15.786,-92.733C15.786,-92.733,27.932,-120.953,51.357,-112.482C74.782,-104.011,71.359,-75.381,71.359,-75.381C71.359,-75.381,68.708,-102.276,99.941,-92.733C131.174,-83.19,144.187,-48.426,142.452,-26.333C140.717,-4.24,136.379,26.125,136.379,45.212C136.379,64.299,177.3,289.466,177.3,289.466C177.3,289.466,172.673,291.346,172.673,291.346C172.673,291.346,-14.726,364.658,-30.917,283.684C-47.114,202.71,-81.094,146.965,-81.094,146.965C-88.609,126.764,-130.836,84.963,-133.724,67.112C-135.667,55.123,-156.139,-26.842,-168.321,-81.465C-172.557,-100.483,-175.791,-116.182,-176.89,-124.473C-177.337,-127.82,-177.434,-129.961,-177.105,-130.618C-173.633,-137.556,-148.188,-143.921,-136.618,-130.618C-125.048,-117.315,-114.109,-76.447,-114.109,-76.447" /></g><g id="i16" transform="matrix(1,0,0,1,0,0)"><g id="i4" transform="matrix(1,0,0,1,448.688,995.289)"><path d="M-10.259,3.435C-10.259,3.435,10.259,-3.435,10.259,-3.435" /></g><g id="i2" transform="matrix(1,0,0,1,448.688,995.515)"><path fill="#000000" d="M-10.331,2.995C-9.104,1.334,-7.581,0.251,-5.849,-0.656C-4.229,-1.543,-2.336,-1.558,-0.575,-1.944C2.892,-2.705,6.673,-3.406,10.187,-3.875C10.187,-3.875,10.331,-3.445,10.331,-3.445C8.735,-2.533,7.111,-1.704,5.489,-0.868C4.277,-0.25,1.814,0.933,0.575,1.493C-1.064,2.245,-2.582,3.373,-4.41,3.64C-6.34,3.958,-8.206,4.011,-10.187,3.424C-10.187,3.424,-10.331,2.995,-10.331,2.995C-10.331,2.995,-10.331,2.995,-10.331,2.995Z" /></g></g><g id="i17" transform="matrix(1,0,0,1,0,0)"><g id="i4" transform="matrix(1,0,0,1,506.64,840.427)"><path fill="#efc8a5" d="M-16.484,0C-16.484,0,16.484,0,16.484,0" /></g><g id="i2" transform="matrix(1,0,0,1,506.64,840.418)"><path fill="#000000" d="M-16.484,-0.218C-11.176,-0.89,-5.353,-1.427,0,-1.804C1.374,-1.901,2.747,-2.081,4.121,-2.234C6.893,-2.543,9.64,-2.198,12.363,-1.592C13.737,-1.267,15.11,-0.867,16.484,-0.218C16.484,-0.218,16.484,0.235,16.484,0.235C12.561,1.931,8.338,2.623,4.121,2.252C1.738,1.938,-1.693,1.684,-4.121,1.515C-8.119,1.157,-12.517,0.748,-16.484,0.235C-16.484,0.235,-16.484,-0.218,-16.484,-0.218C-16.484,-0.218,-16.484,-0.218,-16.484,-0.218Z" /></g></g><g id="i11" transform="matrix(1,0,0,1,0,0)"><g id="i4" transform="matrix(1,0,0,1,573.01,951.367)"><path fill="#efc8a5" d="M-19.087,-3.324C-19.087,-3.324,-1.735,-6.794,5.639,-5.493C13.013,-4.192,19.087,5.785,19.087,5.785" /></g><g id="i2" transform="matrix(1,0,0,1,573.084,950.51)"><path fill="#000000" d="M-19.206,-2.69C-14.013,-4.22,-8.724,-5.417,-3.356,-6.225C-0.619,-6.577,2.25,-6.862,5.049,-6.725C10.263,-6.646,14.528,-2.917,17.023,1.301C17.993,2.925,18.78,4.645,19.206,6.524C19.206,6.524,18.819,6.76,18.819,6.76C15.861,4.485,13.263,2.186,10.568,0.353C8.549,-0.943,6.792,-2.239,4.533,-2.745C0.296,-3.556,-4.114,-3.192,-8.43,-3.042C-11.983,-2.87,-15.548,-2.567,-19.117,-2.245C-19.117,-2.245,-19.206,-2.69,-19.206,-2.69C-19.206,-2.69,-19.206,-2.69,-19.206,-2.69Z" /></g></g><g id="i12" transform="matrix(1,0,0,1,0,0)"><g id="i4" transform="matrix(1,0,0,1,636.126,968.165)"><path fill="#efc8a5" d="M-17.135,-5.374C-17.135,-5.374,-3.253,-11.447,6.29,-5.374C15.833,0.699,17.135,8.073,17.135,8.073" /></g><g id="i2" transform="matrix(1,0,0,1,636.223,967.49)"><path fill="#000000" d="M-17.322,-4.906C-9.906,-8.73,-0.451,-10.569,7.284,-6.451C7.682,-6.244,8.71,-5.642,9.117,-5.422C12.344,-3.458,14.926,-0.397,16.344,3.119C17.036,4.894,17.495,6.788,17.261,8.709C17.261,8.709,16.815,8.788,16.815,8.788C13.448,3.893,9.394,0.726,5.071,-2.965C-1.043,-7.486,-10.151,-6.415,-17.141,-4.492C-17.141,-4.492,-17.322,-4.906,-17.322,-4.906C-17.322,-4.906,-17.322,-4.906,-17.322,-4.906Z" /></g></g><g id="i9" transform="matrix(1,0,0,1,0,0)"><g id="i4" transform="matrix(1,0,0,1,698.374,988.173)"><path fill="#efc8a5" d="M-19.954,-5.427C-19.954,-5.427,-4.338,-14.537,3.47,-8.464C11.278,-2.391,19.954,10.551,19.954,10.551" /></g><g id="i2" transform="matrix(1,0,0,1,698.411,987.511)"><path fill="#000000" d="M-20.105,-4.962C-13.437,-9.268,-2.663,-14.368,4.724,-9.087C6.52,-7.798,8.193,-6.421,9.814,-4.987C13.018,-2.107,15.472,1.427,17.538,5.171C18.548,7.051,19.463,8.987,20.105,11.086C20.105,11.086,19.729,11.339,19.729,11.339C16.349,8.623,13.478,5.642,10.634,2.689C7.793,-0.174,5.48,-3.586,2.481,-6.24C1.82,-6.839,1.139,-7.269,0.324,-7.624C-5.976,-9.969,-13.872,-7.121,-19.877,-4.571C-19.877,-4.571,-20.105,-4.962,-20.105,-4.962C-20.105,-4.962,-20.105,-4.962,-20.105,-4.962Z" /></g></g><g id="i4" transform="matrix(1,0,0,1,506.64,749.44)"><path stroke-miterlimit="10" stroke-width="4.531" stroke="#000000" fill="#efc8a5" d="M15.399,0C15.399,12.218,8.505,22.123,0,22.123C-8.505,22.123,-15.399,12.218,-15.399,0C-15.399,-12.218,-8.505,-22.123,0,-22.123C8.505,-22.123,15.399,-12.218,15.399,0Z" /></g><g id="i2" transform="matrix(1,0,0,1,437.131,933.267)"><path stroke-miterlimit="10" stroke-width="4.531" stroke="#000000" fill="#efc8a5" d="M16.022,0C16.022,12.459,5.923,22.557,-6.536,22.557C-6.842,22.557,-7.147,22.551,-7.453,22.54C-11.689,3.522,-14.923,-12.176,-16.022,-20.467C-13.139,-21.809,-9.923,-22.557,-6.536,-22.557C5.923,-22.557,16.022,-12.454,16.022,0Z" /></g></g></g></g></g></svg>